<?xml version="1.0" encoding="utf-8"?>
<!-- Generator: Adobe Illustrator 17.0.0, SVG Export Plug-In . SVG Version: 6.00 Build 0)  -->
<!DOCTYPE svg PUBLIC "-//W3C//DTD SVG 1.1//EN" "http://www.w3.org/Graphics/SVG/1.1/DTD/svg11.dtd">
<svg version="1.1" id="Layer_1" xmlns="http://www.w3.org/2000/svg" xmlns:xlink="http://www.w3.org/1999/xlink" x="0px" y="0px"
	 width="512px" height="512px" viewBox="0 0 512 512" enable-background="new 0 0 512 512" xml:space="preserve">
<g>
	<path d="M456.908,134.544l-79.451-79.451c-7.909-7.909-20.731-7.908-28.639,0c-7.908,7.908-7.909,20.731,0,28.639l79.451,79.451
		c7.908,7.908,20.731,7.908,28.639,0C464.816,155.275,464.816,142.453,456.908,134.544z"/>
	<path d="M384.847,47.702l79.451,79.451c7.908,7.908,20.731,7.908,28.639,0c7.908-7.908,7.908-20.731,0-28.639l-79.451-79.451
		c-7.909-7.909-20.731-7.908-28.639,0C376.939,26.971,376.938,39.794,384.847,47.702z"/>
	<path d="M424.573,172.422c-4.762-4.762-12.483-4.762-17.245,0L139.906,439.844l-18.551-18.551c0.261-0.237,0.558-0.41,0.81-0.662
		L382.076,160.72c8.504-8.504,8.504-22.291,0-30.795c-8.504-8.504-22.291-8.504-30.795,0L91.37,389.836
		c-0.252,0.252-0.425,0.549-0.662,0.81l-18.551-18.551l267.422-267.422c4.762-4.762,4.762-12.483,0-17.245
		c-4.762-4.762-12.483-4.762-17.245,0L48.873,360.888c-1.149,1.149-2.006,2.475-2.601,3.886c-0.004,0.007-0.007,0.014-0.011,0.021
		c-0.035,0.082-0.069,0.163-0.102,0.246c-0.391,0.718-0.73,1.471-0.947,2.281L13.488,485.711c-0.969,3.607,0.065,7.456,2.705,10.096
		s6.489,3.674,10.096,2.705l118.389-31.723c0.805-0.216,1.553-0.553,2.267-0.941c1.517-0.595,2.943-1.493,4.169-2.719
		l273.461-273.461C429.335,184.905,429.335,177.184,424.573,172.422z M67.486,465.831l-21.318-21.318l14.548-54.295l61.065,61.065
		L67.486,465.831z"/>
</g>
</svg>
