<?xml version="1.0" standalone="no"?>
<!DOCTYPE svg PUBLIC "-//W3C//DTD SVG 20010904//EN"
 "http://www.w3.org/TR/2001/REC-SVG-20010904/DTD/svg10.dtd">
<svg version="1.0" xmlns="http://www.w3.org/2000/svg"
 width="965.000000pt" height="965.000000pt" viewBox="0 0 965.000000 965.000000"
 preserveAspectRatio="xMidYMid meet">
<metadata>
Created by potrace 1.16, written by Peter Selinger 2001-2019
</metadata>
<g transform="translate(0.000000,965.000000) scale(0.100000,-0.100000)"
fill="#000000" stroke="none">
<path d="M4707 5492 c-7 -9 -30 -12 -68 -11 -35 2 -64 -3 -73 -10 -8 -7 -30
-11 -49 -10 -19 2 -42 -3 -51 -10 -9 -7 -22 -11 -30 -8 -8 3 -20 -1 -27 -9 -7
-9 -21 -13 -30 -11 -10 3 -24 -2 -30 -10 -7 -8 -21 -12 -30 -10 -10 3 -23 -1
-30 -9 -6 -8 -15 -12 -19 -9 -4 3 -13 -2 -20 -11 -7 -8 -20 -12 -28 -9 -8 3
-23 -2 -33 -11 -11 -10 -19 -13 -19 -9 0 4 -9 0 -20 -10 -11 -10 -20 -15 -20
-11 0 4 -19 -9 -42 -28 -23 -20 -47 -35 -52 -33 -6 2 -38 -19 -70 -47 -33 -28
-63 -51 -67 -51 -10 0 -216 -208 -245 -248 -71 -97 -136 -203 -170 -277 -9
-19 -25 -52 -35 -73 -11 -22 -19 -47 -19 -57 0 -11 -4 -22 -10 -25 -5 -3 -10
-17 -10 -30 0 -13 -4 -27 -10 -30 -5 -3 -10 -17 -10 -30 0 -13 -4 -27 -10 -30
-5 -3 -10 -26 -10 -50 0 -24 -4 -47 -10 -50 -5 -3 -10 -35 -10 -70 0 -35 -5
-67 -11 -70 -12 -8 -11 -225 1 -240 5 -6 9 -37 11 -70 1 -33 5 -65 10 -70 4
-6 9 -24 12 -40 2 -17 7 -38 11 -47 4 -9 9 -22 10 -30 2 -7 6 -20 9 -28 4 -8
8 -26 9 -40 2 -14 7 -31 11 -37 5 -7 5 -13 1 -13 -4 0 1 -9 11 -20 10 -11 14
-20 10 -20 -4 0 -1 -8 8 -18 9 -10 18 -27 20 -39 1 -12 9 -28 16 -37 7 -9 10
-16 5 -16 -4 0 3 -11 16 -25 13 -14 20 -25 15 -25 -5 0 2 -11 15 -25 13 -14
20 -25 15 -25 -5 0 4 -14 20 -30 16 -17 25 -30 19 -30 -5 0 6 -13 24 -28 18
-15 34 -34 36 -42 3 -17 237 -255 248 -252 4 1 23 -15 43 -35 19 -20 35 -32
35 -28 0 5 14 -4 30 -20 17 -16 30 -25 30 -20 0 4 9 0 20 -10 11 -10 20 -15
20 -11 0 4 13 -2 29 -13 16 -12 32 -21 36 -21 4 0 21 -10 38 -22 18 -13 40
-21 49 -20 10 2 33 -7 50 -20 18 -12 40 -21 49 -20 9 2 21 -4 28 -12 7 -8 19
-12 27 -9 8 3 22 -1 31 -8 8 -8 27 -12 40 -11 13 2 31 -2 40 -9 8 -7 31 -12
50 -10 19 1 41 -3 49 -10 9 -8 37 -12 70 -10 31 1 61 -3 69 -9 19 -15 261 -15
280 0 8 6 38 10 69 9 33 -2 61 2 70 10 8 7 30 11 49 10 19 -2 42 3 51 10 9 7
22 11 30 8 8 -3 20 1 27 9 7 9 21 13 30 11 10 -3 24 2 30 9 7 8 20 13 29 12 9
-2 24 3 33 11 10 7 17 10 17 6 0 -5 9 0 20 10 10 9 26 15 34 12 8 -3 20 1 26
8 7 8 16 13 20 10 4 -3 13 2 20 10 7 8 16 13 20 10 4 -3 13 2 20 10 7 8 16 12
21 10 4 -3 16 6 25 20 9 14 23 24 30 21 7 -3 18 2 24 9 7 8 15 13 19 10 4 -2
25 16 45 41 21 25 44 43 51 41 7 -3 29 15 49 39 52 61 76 60 146 -11 29 -30
56 -52 60 -50 4 2 35 -25 70 -60 35 -35 66 -62 70 -60 4 2 35 -25 70 -60 35
-35 66 -62 70 -60 4 2 30 -20 59 -49 34 -35 59 -52 70 -49 10 2 23 -3 30 -11
17 -20 55 -21 71 -1 7 8 16 13 20 10 4 -2 19 9 35 25 24 25 27 37 27 89 0 34
-5 68 -12 76 -7 8 -9 15 -4 15 4 0 -7 15 -25 34 -18 19 -39 32 -46 30 -7 -3
-34 19 -60 48 -26 29 -53 52 -60 50 -7 -1 -39 26 -71 60 -32 35 -63 62 -70 60
-6 -1 -38 26 -70 60 -32 35 -62 62 -67 60 -5 -2 -20 7 -32 18 -29 27 -28 74 3
96 12 8 20 19 17 24 -3 4 2 13 10 20 8 7 13 16 10 20 -3 4 2 13 10 20 7 6 12
17 9 24 -3 7 6 20 20 30 16 10 23 22 19 31 -3 9 3 25 12 35 10 11 15 20 10 20
-4 0 -1 7 6 17 8 9 13 24 11 33 -1 9 4 22 12 29 7 6 12 20 9 30 -2 9 2 23 11
30 8 7 12 19 9 27 -3 8 1 21 8 30 7 9 12 32 10 51 -1 19 3 41 10 49 8 9 12 37
10 70 -1 30 3 61 9 69 16 19 17 249 1 269 -7 9 -11 37 -10 70 2 33 -2 61 -10
70 -7 8 -11 26 -9 39 1 13 -3 32 -11 40 -7 9 -11 23 -8 31 3 8 -1 20 -9 27 -8
7 -14 25 -12 39 1 15 -4 35 -11 44 -7 9 -10 16 -6 16 5 0 0 9 -10 20 -10 11
-14 20 -10 20 4 0 0 9 -10 20 -9 10 -15 26 -12 34 3 8 -1 20 -8 26 -8 7 -12
16 -10 21 3 4 -6 16 -20 25 -14 9 -24 23 -21 30 3 7 -2 18 -9 24 -8 7 -12 16
-10 21 3 4 -6 16 -20 25 -14 9 -24 23 -21 30 3 7 -11 24 -30 39 -19 15 -34 32
-32 38 2 16 -233 251 -249 249 -6 -2 -23 13 -38 32 -15 19 -32 33 -39 30 -7
-3 -21 7 -30 21 -9 14 -21 23 -25 20 -5 -2 -14 2 -21 10 -6 7 -17 12 -24 9 -7
-3 -21 7 -30 21 -9 14 -21 23 -25 20 -5 -2 -14 2 -21 10 -7 8 -16 13 -20 10
-4 -3 -13 2 -20 10 -6 7 -18 11 -26 8 -8 -3 -24 3 -34 12 -11 10 -20 15 -20
10 0 -4 -7 -1 -17 6 -9 8 -24 13 -33 11 -9 -1 -22 4 -29 12 -7 8 -19 12 -27 9
-8 -3 -22 1 -31 8 -8 8 -27 12 -40 11 -13 -2 -31 2 -40 9 -8 7 -31 12 -50 10
-19 -1 -41 3 -49 10 -9 8 -37 12 -70 10 -33 -1 -61 3 -70 10 -22 18 -272 19
-287 1z m408 -300 c111 -19 147 -30 222 -63 24 -10 46 -19 51 -19 15 0 110
-51 122 -65 7 -8 18 -15 25 -15 6 0 20 -9 30 -20 10 -11 22 -20 27 -20 24 0
228 -175 228 -195 0 -7 10 -20 21 -31 22 -20 99 -128 99 -139 0 -4 14 -26 30
-50 17 -24 30 -48 30 -54 0 -6 9 -30 19 -54 53 -118 70 -216 79 -446 5 -122 4
-168 -5 -180 -7 -9 -13 -35 -13 -58 0 -23 -4 -45 -10 -48 -5 -3 -10 -21 -10
-40 0 -19 -4 -37 -10 -40 -5 -3 -10 -17 -10 -30 0 -13 -5 -27 -10 -30 -6 -4
-9 -12 -8 -18 4 -16 -48 -122 -67 -137 -8 -7 -15 -18 -15 -25 0 -6 -9 -20 -20
-30 -19 -17 -21 -17 -70 26 -255 224 -305 259 -375 259 -27 0 -43 -8 -74 -39
-48 -48 -58 -87 -36 -134 16 -35 132 -149 244 -242 94 -77 101 -84 101 -97 0
-14 -99 -108 -114 -108 -5 0 -18 -7 -28 -17 -10 -9 -26 -21 -37 -27 -55 -32
-124 -67 -160 -81 -23 -8 -60 -22 -83 -31 -24 -10 -65 -21 -93 -26 -27 -5 -77
-14 -110 -20 -77 -14 -392 -14 -470 0 -86 15 -134 27 -182 46 -24 9 -61 23
-84 31 -187 70 -429 273 -543 456 -64 102 -79 128 -92 161 -7 18 -20 53 -29
78 -20 51 -32 98 -47 185 -14 79 -14 376 0 440 44 203 72 273 156 399 143 213
362 399 555 471 23 8 60 22 84 31 44 18 101 30 199 42 31 4 60 11 65 15 10 11
344 2 418 -11z"/>
</g>
</svg>
