<?xml version="1.0" standalone="no"?>
<!DOCTYPE svg PUBLIC "-//W3C//DTD SVG 20010904//EN"
 "http://www.w3.org/TR/2001/REC-SVG-20010904/DTD/svg10.dtd">
<svg version="1.0" xmlns="http://www.w3.org/2000/svg"
 width="965.000000pt" height="965.000000pt" viewBox="0 0 965.000000 965.000000"
 preserveAspectRatio="xMidYMid meet">
<metadata>
Created by potrace 1.16, written by Peter Selinger 2001-2019
</metadata>
<g transform="translate(0.000000,965.000000) scale(0.100000,-0.100000)"
fill="#000000" stroke="none">
<path d="M4705 8350 c4 -6 -22 -10 -70 -10 -48 0 -74 -4 -70 -10 4 -6 -15 -10
-50 -10 -35 0 -54 -4 -50 -10 4 -6 -12 -10 -40 -10 -28 0 -44 -4 -40 -10 4 -6
-8 -10 -30 -10 -22 0 -34 -4 -30 -10 4 -6 -8 -10 -30 -10 -22 0 -34 -4 -30
-10 3 -6 -5 -10 -19 -10 -14 0 -28 -4 -31 -10 -3 -5 -15 -10 -26 -10 -10 0
-19 -4 -19 -10 0 -5 -9 -10 -20 -10 -11 0 -20 -4 -20 -10 0 -5 -9 -10 -20 -10
-11 0 -20 -4 -20 -10 0 -5 -9 -10 -20 -10 -11 0 -20 -4 -20 -10 0 -5 -9 -10
-20 -10 -11 0 -20 -3 -20 -8 0 -4 -15 -14 -32 -22 -18 -7 -42 -22 -52 -32 -11
-10 -23 -18 -27 -18 -4 0 -21 -13 -39 -30 -18 -16 -36 -30 -41 -30 -5 0 -25
-18 -45 -40 -20 -22 -42 -40 -50 -40 -19 0 -167 -147 -153 -152 7 -2 -15 -28
-49 -58 -34 -29 -59 -57 -56 -62 3 -5 -5 -18 -18 -29 -13 -11 -17 -17 -10 -14
11 6 11 3 0 -14 -7 -12 -16 -21 -20 -21 -5 0 -8 -6 -8 -13 0 -7 -8 -22 -17
-33 -10 -11 -19 -26 -21 -34 -2 -8 -8 -16 -13 -18 -5 -2 -9 -12 -9 -23 0 -10
-4 -19 -10 -19 -5 0 -10 -9 -10 -21 0 -11 -4 -17 -10 -14 -6 4 -10 -5 -10 -19
0 -14 -4 -26 -10 -26 -5 0 -10 -14 -10 -31 0 -17 -4 -28 -10 -24 -6 4 -10 -5
-10 -20 0 -15 -4 -24 -10 -20 -6 4 -10 -8 -10 -30 0 -22 -4 -34 -10 -30 -6 4
-10 -8 -10 -30 0 -22 -4 -34 -10 -30 -6 4 -10 -12 -10 -40 0 -28 -4 -44 -10
-40 -6 4 -10 -12 -10 -39 0 -25 -4 -46 -10 -46 -6 0 -10 -30 -10 -70 0 -39 -4
-70 -10 -70 -6 0 -11 -82 -12 -212 l-3 -213 -270 -3 c-159 -1 -273 -6 -279
-12 -6 -6 -22 -10 -38 -10 -15 0 -43 -9 -63 -20 -20 -11 -43 -20 -53 -20 -9 0
-23 -9 -30 -20 -7 -11 -19 -20 -27 -20 -19 0 -170 -151 -167 -167 1 -6 -8 -20
-20 -30 -13 -10 -24 -25 -26 -33 -2 -8 -7 -17 -10 -20 -4 -3 -9 -16 -11 -30
-1 -14 -6 -27 -10 -30 -3 -3 -8 -21 -10 -40 -1 -19 -7 -36 -12 -38 -12 -5 -12
-3859 1 -3864 5 -2 10 -20 12 -40 1 -21 6 -38 10 -38 4 0 8 -9 8 -20 0 -11 5
-20 10 -20 6 0 10 -9 10 -19 0 -11 11 -33 25 -49 14 -17 25 -35 25 -41 0 -7
27 -37 60 -68 33 -30 57 -59 54 -64 -3 -5 2 -9 10 -9 9 0 16 -5 16 -11 0 -5 4
-8 8 -5 12 7 53 -24 46 -35 -3 -5 -2 -9 3 -8 23 4 43 -2 38 -11 -4 -6 -3 -10
2 -9 4 1 22 1 38 0 23 -1 27 -3 15 -11 -11 -7 1 -10 40 -10 39 0 51 -3 40 -10
-10 -6 772 -10 2215 -10 1390 0 2235 4 2240 9 6 6 29 11 52 12 23 2 40 6 37
11 -3 4 10 8 28 8 25 0 29 3 18 10 -11 7 -5 10 25 10 30 0 36 3 25 10 -13 9
-13 10 0 11 8 1 18 1 23 0 4 0 6 4 5 11 -2 7 2 13 7 13 21 3 54 20 57 30 2 6
6 9 11 7 4 -1 6 4 5 10 -2 7 3 12 10 10 6 -1 11 4 10 10 -2 7 3 12 10 10 6 -1
11 4 10 10 -2 7 4 11 12 10 8 -2 12 0 7 4 -4 4 4 20 19 35 14 15 27 31 27 36
1 4 6 7 10 5 5 -1 6 2 3 7 -3 5 1 14 9 21 8 7 13 16 10 20 -3 5 -1 11 5 15 5
3 10 17 10 30 0 13 4 27 10 30 6 3 10 21 10 40 0 19 5 37 10 40 14 9 14 3861
0 3870 -5 3 -10 21 -10 40 0 19 -4 37 -10 40 -5 3 -10 17 -10 31 0 14 -4 22
-10 19 -6 -3 -10 4 -10 18 0 13 -9 32 -20 42 -11 10 -20 23 -20 30 0 6 -16 26
-35 45 -19 18 -31 38 -28 43 3 6 1 7 -5 4 -5 -4 -21 6 -35 23 -14 16 -38 37
-54 47 -16 10 -45 28 -64 40 -19 13 -44 23 -56 23 -12 0 -25 5 -28 10 -3 6
-21 10 -39 10 -17 0 -36 4 -42 10 -5 5 -103 11 -229 12 l-220 3 -3 213 c-1
130 -6 212 -12 212 -6 0 -10 31 -10 69 0 39 -4 73 -10 76 -5 3 -10 21 -10 40
0 19 -4 37 -10 40 -5 3 -10 21 -10 40 0 19 -4 37 -10 40 -5 3 -10 17 -10 30 0
13 -4 27 -10 30 -5 3 -10 17 -10 30 0 13 -4 27 -10 30 -5 3 -10 15 -10 27 0
11 -13 44 -30 74 -16 30 -27 54 -23 54 3 0 -2 9 -13 21 -10 12 -17 22 -14 23
3 0 -6 19 -19 41 -14 22 -25 42 -26 45 0 3 -14 25 -30 49 -17 24 -35 53 -41
64 -7 10 -33 40 -58 66 -25 26 -46 51 -46 57 0 13 -135 146 -141 139 -3 -2
-25 16 -49 40 -24 25 -49 45 -55 45 -6 0 -24 14 -40 30 -16 17 -35 30 -42 30
-8 0 -12 4 -9 9 5 8 -29 24 -46 22 -3 0 -12 6 -18 14 -7 8 -19 15 -27 15 -8 0
-11 5 -8 10 4 6 -5 10 -20 10 -15 0 -24 4 -20 10 4 6 -5 10 -20 10 -15 0 -24
4 -20 10 4 6 -5 10 -20 10 -15 0 -24 4 -20 10 4 6 -5 10 -21 10 -15 0 -24 3
-21 7 8 7 -58 33 -86 33 -10 0 -15 5 -12 10 4 6 -8 10 -30 10 -22 0 -34 4 -30
10 4 6 -8 10 -30 10 -22 0 -34 4 -30 10 4 6 -12 10 -40 10 -28 0 -44 4 -40 10
4 6 -15 10 -50 10 -35 0 -54 4 -50 10 4 6 -23 10 -74 10 -47 0 -81 4 -81 10 0
6 -60 10 -161 10 -104 0 -158 -3 -154 -10z m330 -520 c3 -5 30 -10 60 -10 30
0 57 -4 60 -10 3 -5 21 -10 40 -10 19 0 37 -4 40 -10 3 -5 14 -10 24 -10 21 0
73 -25 66 -31 -2 -3 8 -6 23 -7 31 -2 152 -61 152 -73 0 -5 6 -9 13 -9 8 0 22
-9 32 -20 10 -11 22 -17 27 -14 5 3 24 -10 42 -30 18 -20 39 -36 47 -36 18 0
129 -111 129 -129 0 -7 18 -31 40 -52 22 -22 39 -42 38 -47 -2 -4 7 -18 19
-31 12 -13 20 -28 17 -33 -3 -4 2 -11 11 -14 9 -4 14 -13 11 -21 -3 -7 1 -16
10 -20 8 -3 13 -12 10 -20 -3 -7 1 -16 10 -20 8 -3 13 -12 10 -20 -3 -7 1 -16
10 -20 8 -3 13 -12 10 -20 -3 -7 1 -16 9 -19 9 -4 15 -19 15 -35 0 -16 5 -29
10 -29 6 0 10 -18 10 -40 0 -22 5 -40 10 -40 6 0 10 -27 10 -60 0 -34 4 -60
10 -60 7 0 9 -73 8 -212 l-3 -213 -1195 0 -1195 0 -3 213 c-1 139 1 212 8 212
5 0 10 24 10 54 0 30 5 58 10 61 6 3 10 21 10 39 0 19 7 39 15 46 8 7 12 16 9
22 -6 9 98 222 122 249 8 8 14 20 14 25 0 6 14 23 30 39 17 16 30 34 30 40 0
15 143 155 158 155 7 0 26 16 43 35 17 19 35 32 41 29 5 -3 17 4 27 15 10 12
26 21 35 21 9 0 16 5 16 10 0 6 9 10 20 10 11 0 20 5 20 10 0 6 9 10 20 10 11
0 20 5 20 10 0 6 9 10 20 10 11 0 20 5 20 10 0 6 9 10 20 10 11 0 20 5 20 10
0 6 9 10 20 10 11 0 20 5 20 10 0 6 26 11 58 11 47 1 52 3 27 9 -22 6 -5 8 60
10 81 3 85 4 40 10 l-50 7 63 1 c34 1 62 7 62 12 0 6 60 10 159 10 96 0 162
-4 166 -10z m-41 -2329 c9 -7 37 -11 70 -10 33 2 61 -2 70 -10 8 -7 30 -11 49
-10 19 2 42 -3 50 -10 9 -7 27 -11 40 -9 13 1 32 -3 40 -11 9 -7 23 -11 31 -8
8 3 20 -1 27 -9 7 -8 20 -13 29 -12 9 2 24 -3 33 -11 10 -7 17 -10 17 -6 0 5
9 0 20 -10 10 -9 26 -15 34 -12 8 3 20 -1 26 -8 7 -8 16 -13 20 -10 4 3 13 -2
20 -10 7 -8 16 -13 20 -10 5 3 18 -6 29 -21 11 -14 24 -23 29 -20 6 3 15 -1
22 -9 7 -8 16 -13 20 -10 5 3 18 -6 29 -21 11 -14 25 -23 30 -20 5 4 22 -10
37 -29 14 -19 32 -34 38 -33 14 3 261 -244 258 -258 -1 -6 14 -24 33 -38 19
-15 33 -32 29 -37 -3 -5 6 -19 20 -30 15 -11 24 -24 21 -29 -3 -4 2 -13 10
-20 8 -7 12 -16 9 -22 -3 -5 6 -18 20 -29 15 -11 24 -24 21 -29 -3 -4 2 -13
10 -20 7 -6 11 -18 8 -26 -3 -8 3 -24 12 -34 10 -11 14 -20 10 -20 -4 0 0 -9
10 -20 10 -11 15 -20 10 -20 -4 0 -1 -7 6 -16 7 -9 12 -29 11 -44 -2 -14 4
-32 12 -39 8 -7 12 -19 9 -27 -3 -8 1 -22 8 -31 8 -8 12 -27 11 -40 -2 -13 2
-31 9 -39 8 -9 12 -37 10 -70 -1 -33 3 -61 10 -70 16 -20 15 -250 -1 -269 -6
-8 -10 -39 -9 -69 2 -33 -2 -61 -10 -70 -7 -8 -11 -30 -10 -49 2 -19 -3 -42
-10 -51 -7 -9 -11 -22 -8 -30 3 -8 -1 -20 -9 -27 -9 -7 -13 -21 -11 -30 3 -10
-2 -24 -9 -30 -8 -7 -13 -20 -12 -29 2 -9 -3 -24 -11 -33 -7 -10 -10 -17 -6
-17 5 0 0 -9 -10 -20 -9 -10 -15 -26 -12 -34 4 -9 -4 -23 -19 -35 -14 -11 -23
-24 -20 -29 3 -6 -1 -15 -9 -22 -8 -7 -13 -16 -10 -20 3 -4 -2 -13 -10 -20 -8
-7 -13 -16 -10 -20 3 -5 -5 -17 -18 -27 -14 -11 -23 -28 -23 -44 1 -30 24 -62
41 -55 6 2 38 -25 70 -61 31 -35 63 -62 70 -60 6 3 38 -24 70 -60 31 -35 63
-62 70 -59 7 2 34 -20 60 -50 26 -31 53 -53 60 -50 7 2 30 -13 51 -35 21 -21
34 -39 30 -39 -5 0 -3 -7 4 -15 7 -8 12 -42 12 -76 0 -55 -3 -64 -32 -94 -18
-19 -36 -32 -40 -30 -4 3 -13 -2 -20 -10 -16 -20 -54 -19 -71 1 -7 8 -20 13
-30 11 -11 -3 -36 14 -70 49 -29 29 -55 51 -59 49 -4 -2 -35 25 -70 60 -35 35
-66 62 -70 60 -4 -2 -35 25 -70 60 -35 35 -66 62 -70 60 -4 -2 -31 20 -60 50
-70 71 -94 72 -145 11 -20 -25 -42 -43 -50 -40 -7 3 -29 -15 -50 -40 -20 -25
-41 -44 -45 -41 -4 3 -13 -2 -20 -10 -7 -8 -16 -12 -22 -9 -5 3 -18 -6 -29
-20 -11 -15 -24 -24 -29 -21 -4 3 -13 -2 -20 -10 -7 -8 -16 -13 -20 -10 -4 3
-13 -2 -20 -10 -7 -8 -16 -13 -20 -10 -4 3 -13 -2 -20 -10 -6 -7 -18 -11 -26
-8 -8 3 -24 -3 -34 -12 -11 -10 -20 -15 -20 -10 0 4 -7 1 -17 -6 -9 -8 -24
-13 -33 -11 -9 1 -22 -4 -29 -12 -6 -7 -20 -12 -30 -9 -9 2 -23 -2 -30 -11 -7
-8 -19 -12 -27 -9 -8 3 -21 -1 -30 -8 -9 -7 -32 -12 -51 -10 -19 1 -41 -3 -49
-10 -9 -8 -37 -12 -70 -10 -31 1 -61 -3 -69 -9 -19 -15 -261 -15 -280 0 -8 6
-38 10 -69 9 -33 -2 -61 2 -70 10 -8 7 -30 11 -49 10 -19 -2 -42 3 -50 10 -9
7 -27 11 -40 9 -13 -1 -32 3 -40 11 -9 7 -23 11 -31 8 -8 -3 -20 1 -27 9 -7 8
-19 14 -28 12 -9 -1 -31 8 -49 20 -17 13 -40 22 -50 20 -9 -1 -31 7 -49 20
-17 12 -34 22 -38 22 -4 0 -20 9 -36 21 -16 11 -29 17 -29 13 0 -4 -9 1 -20
11 -11 10 -20 14 -20 10 0 -5 -13 4 -30 20 -16 16 -30 25 -30 20 0 -5 -15 6
-34 25 -19 19 -38 35 -43 35 -13 1 -257 248 -259 264 -2 7 -18 26 -36 42 -18
15 -29 28 -24 29 6 0 -3 13 -19 30 -16 17 -25 30 -20 30 5 0 -2 11 -15 25 -13
14 -20 25 -15 25 5 0 -2 11 -15 25 -13 14 -20 25 -16 25 5 0 2 7 -5 16 -7 9
-15 25 -16 37 -2 12 -11 29 -20 39 -9 10 -12 18 -8 18 4 0 0 9 -10 20 -10 11
-15 20 -11 20 4 0 4 6 -1 13 -4 6 -9 23 -11 37 -1 14 -5 32 -9 40 -3 8 -7 21
-9 28 -1 8 -6 21 -10 30 -4 9 -9 30 -11 47 -3 16 -8 34 -12 40 -5 5 -9 37 -10
70 -2 33 -6 64 -11 70 -12 15 -13 232 -1 240 6 3 11 35 11 70 0 35 5 67 10 70
6 3 10 26 10 50 0 24 5 47 10 50 6 3 10 17 10 30 0 13 5 27 10 30 6 3 10 17
10 30 0 13 5 27 10 30 6 3 10 14 10 25 0 10 8 35 19 57 10 21 26 54 35 73 34
74 98 179 171 279 29 40 243 256 254 256 4 0 34 23 67 51 32 28 64 49 70 47 5
-2 29 13 52 33 23 19 42 32 42 28 0 -4 9 1 20 11 11 10 20 14 20 10 0 -4 8 -1
19 9 10 9 25 14 33 11 8 -3 21 1 28 9 7 9 16 14 20 11 4 -3 13 1 19 9 7 8 20
12 30 9 9 -2 23 2 30 10 6 8 20 13 30 10 9 -2 23 2 30 11 7 8 19 12 27 9 8 -3
21 1 30 8 9 7 32 12 51 10 19 -1 41 3 49 10 9 7 38 12 73 10 38 -1 61 2 68 11
15 18 265 17 287 -1z"/>
<path d="M4697 5193 c-5 -4 -34 -11 -65 -15 -98 -12 -155 -24 -199 -42 -24 -9
-61 -23 -84 -31 -266 -100 -563 -405 -651 -669 -20 -61 -30 -97 -50 -191 -14
-64 -14 -361 0 -440 15 -87 27 -134 47 -185 9 -25 22 -60 29 -78 13 -33 28
-59 92 -161 111 -179 347 -376 531 -445 21 -8 58 -22 83 -31 51 -20 98 -32
185 -47 78 -14 393 -14 470 0 33 6 83 15 110 20 28 5 69 16 93 26 23 9 60 23
83 31 36 14 105 49 160 81 11 6 27 18 37 27 10 10 23 17 28 17 14 0 104 85
104 98 0 11 0 12 -91 87 -113 94 -238 218 -254 252 -23 48 -11 87 41 139 35
36 50 44 79 44 70 0 120 -34 375 -259 42 -36 52 -42 65 -31 8 7 15 18 15 25 0
7 7 18 15 25 19 15 71 121 67 137 -1 6 2 14 8 18 5 3 10 17 10 30 0 13 5 27
10 30 6 3 10 21 10 40 0 19 5 37 10 40 6 3 10 25 10 48 0 23 6 49 13 58 9 12
10 58 5 180 -9 230 -26 328 -79 446 -10 24 -19 48 -19 54 0 6 -13 30 -30 54
-16 24 -30 46 -30 50 0 11 -77 119 -99 139 -11 11 -21 25 -21 31 0 20 -195
185 -218 185 -5 0 -17 9 -27 20 -10 11 -24 20 -30 20 -7 0 -18 7 -25 15 -12
14 -107 65 -122 65 -5 0 -27 9 -51 19 -75 33 -111 44 -222 63 -74 13 -408 22
-418 11z"/>
</g>
</svg>
